HIERARCHY
ROOT Hips
{
	OFFSET 0.000000 0.000000 0.000000
	CHANNELS 6 Xposition Yposition Zposition Xrotation Yrotation Zrotation
	JOINT LeftUpLeg_virtual
	{
		OFFSET 0.000000 0.000000 0.000000
		CHANNELS 3 Xrotation Yrotation Zrotation
		JOINT LeftUpLeg
		{
			OFFSET 15.427100 -6.655098 0.678600
			CHANNELS 3 Xrotation Yrotation Zrotation
			JOINT LeftLeg
			{
				OFFSET 4.081073 -39.591068 13.024000
				CHANNELS 3 Xrotation Yrotation Zrotation
				JOINT LeftFoot
				{
					OFFSET -4.081074 -37.707932 -15.979700
					CHANNELS 3 Xrotation Yrotation Zrotation
					JOINT LeftToeBase
					{
						OFFSET 5.346399 -15.068900 20.645000
						CHANNELS 3 Xrotation Yrotation Zrotation
						JOINT LeftToe_End
						{
							OFFSET 2.754700 0.931300 11.300900
							CHANNELS 3 Xrotation Yrotation Zrotation
							End Site
							{
								OFFSET 0 0 0
							}
						}
					}
				}
			}
		}
	}
	JOINT RightUpLeg_virtual
	{
		OFFSET 0.000000 0.000000 0.000000
		CHANNELS 3 Xrotation Yrotation Zrotation
		JOINT RightUpLeg
		{
			OFFSET -15.569500 -6.655098 0.678600
			CHANNELS 3 Xrotation Yrotation Zrotation
			JOINT RightLeg
			{
				OFFSET -4.081825 -39.591045 13.023800
				CHANNELS 3 Xrotation Yrotation Zrotation
				JOINT RightFoot
				{
					OFFSET 4.081824 -37.707954 -15.979600
					CHANNELS 3 Xrotation Yrotation Zrotation
					JOINT RightToeBase
					{
						OFFSET -5.346400 -15.068900 20.645000
						CHANNELS 3 Xrotation Yrotation Zrotation
						JOINT RightToe_End
						{
							OFFSET -2.754700 0.931300 11.300900
							CHANNELS 3 Xrotation Yrotation Zrotation
							End Site
							{
								OFFSET 0 0 0
							}
						}
					}
				}
			}
		}
	}
	JOINT Spine_virtual
	{
		OFFSET 0.000000 0.000000 0.000000
		CHANNELS 3 Xrotation Yrotation Zrotation
		JOINT Spine
		{
			OFFSET -0.279200 12.230698 -2.892100
			CHANNELS 3 Xrotation Yrotation Zrotation
			JOINT Spine1
			{
				OFFSET -0.232667 10.192268 -1.242267
				CHANNELS 3 Xrotation Yrotation Zrotation
				JOINT Spine1_split
				{
					OFFSET -0.232667 10.192268 -1.242267
					CHANNELS 3 Xrotation Yrotation Zrotation
					JOINT Spine2
					{
						OFFSET -0.232667 10.192268 -1.242267
						CHANNELS 3 Xrotation Yrotation Zrotation
						JOINT Neck_virtual
						{
							OFFSET 0.000000 0.000000 0.000000
							CHANNELS 3 Xrotation Yrotation Zrotation
							JOINT Neck
							{
								OFFSET -0.418800 17.814194 8.416900
								CHANNELS 3 Xrotation Yrotation Zrotation
								JOINT Head
								{
									OFFSET 0.000000 7.031097 3.806800
									CHANNELS 3 Xrotation Yrotation Zrotation
									JOINT HeadTop_End
									{
										OFFSET 0.000000 24.646606 12.978600
										CHANNELS 3 Xrotation Yrotation Zrotation
										End Site
										{
											OFFSET 0 0 0
										}
									}
								}
							}
						}
						JOINT LeftShoulder_virtual
						{
							OFFSET 0.000000 0.000000 0.000000
							CHANNELS 3 Xrotation Yrotation Zrotation
							JOINT LeftShoulder
							{
								OFFSET 8.476499 7.247704 -3.868750
								CHANNELS 3 Xrotation Yrotation Zrotation
								JOINT LeftShoulder_split
								{
									OFFSET 8.476499 7.247704 -3.868750
									CHANNELS 3 Xrotation Yrotation Zrotation
									JOINT LeftArm
									{
										OFFSET 9.308998 -2.777710 0.208600
										CHANNELS 3 Xrotation Yrotation Zrotation
										JOINT LeftForeArm
										{
											OFFSET 29.972298 0.000000 0.000000
											CHANNELS 3 Xrotation Yrotation Zrotation
											JOINT LeftHand
											{
												OFFSET 26.026505 0.000000 0.000000
												CHANNELS 3 Xrotation Yrotation Zrotation
												End Site
												{
													OFFSET 0 0 0
												}
											}
										}
									}
								}
							}
						}
						JOINT RightShoulder_virtual
						{
							OFFSET 0.000000 0.000000 0.000000
							CHANNELS 3 Xrotation Yrotation Zrotation
							JOINT RightShoulder
							{
								OFFSET -7.570500 7.247704 -3.868750
								CHANNELS 3 Xrotation Yrotation Zrotation
								JOINT RightShoulder_split
								{
									OFFSET -7.570500 7.247704 -3.868750
									CHANNELS 3 Xrotation Yrotation Zrotation
									JOINT RightArm
									{
										OFFSET -9.308998 -2.777710 0.208500
										CHANNELS 3 Xrotation Yrotation Zrotation
										JOINT RightForeArm
										{
											OFFSET -29.972300 0.000000 0.000000
											CHANNELS 3 Xrotation Yrotation Zrotation
											JOINT RightHand
											{
												OFFSET -26.026505 0.000000 0.000000
												CHANNELS 3 Xrotation Yrotation Zrotation
												End Site
												{
													OFFSET 0 0 0
												}
											}
										}
									}
								}
							}
						}
					}
				}
			}
		}
	}
}
MOTION
Frames: 7
Frame Time: 0.03333333
2.085287 52.304489 5.463097 0.000000 0.000000 0.000000 -2.961099 6.984833 -0.024316 -85.886678 -9.447770 11.975286 76.647864 4.864963 -0.211161 17.974090 -7.594017 -8.067382 -4.365503 -0.091702 0.175493 0.000000 0.000000 0.000000 -3.366117 7.806098 0.143448 -82.724936 12.945548 -13.965444 77.516507 -1.375866 -1.002456 13.260741 0.782158 8.845558 3.724535 1.647256 0.796595 0.000000 0.000000 0.000000 -2.712293 2.164844 -0.325674 10.423687 -0.165981 -3.056109 1.958176 0.695935 -0.437327 1.232550 2.152404 -0.338088 0.000000 0.000000 0.000000 1.081728 0.326697 -0.424540 -0.888431 -4.847200 1.214320 -9.612999 -0.442150 -2.005830 0.000000 0.000000 0.000000 2.141046 -0.313023 -0.466331 0.504887 -12.240288 -5.677498 -6.695770 1.459196 -3.012882 -0.224535 -16.156273 -56.213980 6.444242 -64.725946 5.309515 0.000000 0.000000 0.000000 1.306448 0.447604 0.184503 2.873093 -5.327300 8.259380 4.457734 5.156846 0.718262 -7.338602 34.396952 63.982173 -4.264362 58.260735 -0.165743 0.000000 0.000000 0.000000 
1.957042 52.250900 5.389301 0.000000 0.000000 0.000000 -3.177470 6.770906 0.051610 -85.717802 -9.504603 12.014583 76.817526 4.803026 -0.238172 18.202522 -7.510228 -7.972794 -4.472198 -0.055664 0.124017 0.000000 0.000000 0.000000 -3.682708 7.599597 0.245310 -82.726841 12.851032 -14.088357 77.885330 -1.241160 -1.051562 13.155936 0.929225 8.775371 4.017974 1.657483 0.809893 0.000000 0.000000 0.000000 -3.203495 2.268707 -0.360610 10.223630 -0.281123 -2.993618 2.236256 0.696614 -0.379756 1.174940 2.090765 -0.086950 0.000000 0.000000 0.000000 1.273539 0.280417 -0.292977 -1.059067 -4.242919 1.181429 -10.167497 -0.253033 -1.990809 0.000000 0.000000 0.000000 2.257995 -0.261879 -0.442746 0.429617 -12.202096 -5.773660 -5.827079 0.070412 -2.723832 -0.694371 -16.462366 -56.574156 6.861670 -64.135872 5.404740 0.000000 0.000000 0.000000 1.535765 0.386792 0.168912 2.800081 -4.968864 8.577203 4.157592 4.872030 0.700709 -7.158153 32.735874 62.564622 -3.582242 57.147230 -0.234531 0.000000 0.000000 0.000000 
1.803229 52.226692 5.336224 0.000000 0.000000 0.000000 -3.586641 6.543900 0.242358 -85.432457 -9.417986 12.024509 76.908476 4.864275 -0.234604 18.540087 -7.370575 -7.661087 -4.524602 0.003007 0.024548 0.000000 0.000000 0.000000 -4.123856 7.339281 0.449283 -82.556100 12.748328 -14.165755 78.138061 -1.112520 -1.181363 13.191659 1.079153 8.719729 4.047574 1.653246 0.871021 0.000000 0.000000 0.000000 -3.774154 2.210106 -0.418331 9.896822 -0.493195 -2.851059 3.000478 0.621246 -0.305894 1.026092 2.078923 0.199381 0.000000 0.000000 0.000000 1.955106 0.198876 -0.204223 -1.135298 -3.650917 1.036341 -11.911876 0.154725 -2.176853 0.000000 0.000000 0.000000 2.840156 -0.212932 -0.414185 0.319791 -12.738220 -5.926531 -5.123278 -1.329133 -2.112805 -0.598337 -17.037465 -56.259589 6.972819 -64.583448 5.436573 0.000000 0.000000 0.000000 2.340824 0.296573 0.104146 2.602387 -4.090333 9.059117 3.635982 4.719480 0.411147 -6.663121 30.568812 59.808900 -2.926353 57.885641 -0.322562 0.000000 0.000000 0.000000 
1.637577 52.272652 5.297138 0.000000 0.000000 0.000000 -4.099128 6.344766 0.518536 -85.081631 -9.226261 11.990901 76.849826 5.001159 -0.176253 18.946972 -7.214695 -7.284464 -4.552697 0.075429 -0.097873 0.000000 0.000000 0.000000 -4.568460 7.138996 0.720845 -82.226954 12.690190 -14.189540 78.152295 -1.025500 -1.363423 13.324404 1.186001 8.662728 3.847671 1.626259 0.967251 0.000000 0.000000 0.000000 -4.297681 1.936860 -0.445995 9.490067 -0.750501 -2.650169 4.182794 0.519477 -0.250719 0.881979 1.877247 0.560141 0.000000 0.000000 0.000000 3.071214 0.105707 -0.185461 -1.143539 -3.137410 0.711762 -14.694828 0.654934 -2.572873 0.000000 0.000000 0.000000 3.792528 -0.155081 -0.403616 0.172334 -13.798305 -6.092745 -4.666727 -2.277423 -1.689503 -0.159632 -17.424282 -54.785620 6.876869 -66.910275 5.498390 0.000000 0.000000 0.000000 3.628452 0.202710 -0.017274 2.311210 -2.757779 9.666974 2.967277 4.634700 -0.003274 -6.242147 28.229756 56.015782 -2.206509 61.562011 -0.489221 0.000000 0.000000 0.000000 
1.494546 52.383560 5.250076 0.000000 0.000000 0.000000 -4.620728 6.170940 0.843268 -84.751391 -8.948053 11.925322 76.684959 5.185206 -0.065520 19.398827 -7.088656 -7.004061 -4.595063 0.140318 -0.186605 0.000000 0.000000 0.000000 -4.933209 7.085646 1.026915 -81.826718 12.711494 -14.176991 77.967245 -1.009502 -1.531327 13.536366 1.236326 8.583097 3.607472 1.584722 1.059198 0.000000 0.000000 0.000000 -4.694123 1.545515 -0.381092 8.986773 -1.013922 -2.437867 5.666012 0.415751 -0.243685 0.710618 1.791749 0.759909 0.000000 0.000000 0.000000 4.512924 0.015795 -0.250951 -0.985885 -2.743092 0.184074 -18.157344 1.171137 -3.091560 0.000000 0.000000 0.000000 5.053036 -0.105653 -0.427944 -0.001156 -15.251568 -6.254733 -4.107513 -2.919086 -1.525561 0.381283 -17.320598 -51.764296 6.947124 -71.528289 5.850721 0.000000 0.000000 0.000000 5.232297 0.116463 -0.200587 1.929492 -1.113833 10.353809 2.631098 4.531920 -0.336057 -6.445772 26.021103 51.614551 -1.383568 68.706130 -0.771113 0.000000 0.000000 0.000000 
1.382147 52.512039 5.171169 0.000000 0.000000 0.000000 -5.005212 6.047168 1.170099 -84.547196 -8.597546 11.819930 76.471501 5.392278 0.071142 19.814165 -7.027373 -6.930229 -4.660945 0.175903 -0.196344 0.000000 0.000000 0.000000 -5.136718 7.112031 1.330071 -81.529858 12.830589 -14.161598 77.730230 -1.058951 -1.621777 13.793776 1.240153 8.521649 3.398555 1.537939 1.110528 0.000000 0.000000 0.000000 -4.880631 1.201541 -0.167765 8.351177 -1.245748 -2.296255 7.297273 0.323576 -0.320096 0.427258 1.763354 0.596270 0.000000 0.000000 0.000000 6.159831 -0.073565 -0.386925 -0.567377 -2.430238 -0.552476 -21.920130 1.567892 -3.623958 0.000000 0.000000 0.000000 6.507829 -0.086573 -0.499646 -0.187583 -16.762871 -6.374279 -3.389939 -3.412712 -1.475327 0.185106 -16.894382 -47.069576 7.995918 -78.441663 7.221763 0.000000 0.000000 0.000000 6.946954 0.017699 -0.428139 1.471336 0.793223 10.945703 2.648384 4.704213 -0.218571 -7.860405 23.969097 46.888572 -0.161933 78.586599 -1.484554 0.000000 0.000000 0.000000 
1.295461 52.603523 5.110500 0.000000 0.000000 0.000000 -5.044761 6.007432 1.469077 -84.583355 -8.168790 11.703801 76.259957 5.642803 0.178932 20.056898 -7.040134 -7.023353 -4.787372 0.173896 -0.085905 0.000000 0.000000 0.000000 -5.068712 7.163183 1.606931 -81.477347 12.991845 -14.173219 77.567221 -1.156406 -1.620405 14.015543 1.223726 8.533842 3.128465 1.495886 1.092580 0.000000 0.000000 0.000000 -4.808051 0.958680 0.200942 7.565986 -1.442587 -2.255601 8.895302 0.218791 -0.474781 0.033566 1.697044 0.190250 0.000000 0.000000 0.000000 7.844980 -0.192263 -0.564695 0.074509 -2.189171 -1.471181 -25.734698 1.724861 -4.074691 0.000000 0.000000 0.000000 8.031246 -0.120469 -0.606199 -0.361171 -18.005374 -6.322050 -2.719550 -3.869553 -1.672109 -1.430195 -16.509286 -40.802748 19.990719 -86.900545 19.539160 0.000000 0.000000 0.000000 8.598517 -0.129648 -0.667139 0.978049 2.826357 11.218840 2.738431 5.022875 0.347585 -11.083424 22.249830 42.033698 44.044215 89.636302 -45.281381 0.000000 0.000000 0.000000 
